# xmcd
#
# Track frame offsets:
#	150
#	34165
#	73440
#	120599
#	151161
#	183113
#
# Disc length: 3187 seconds
# Revision: 1
# Processed by: cddbd v1.5.2PL0 Copyright (c) Steve Scherf et al.
# Submitted via: dBpowerAMP V12.0
#
DISCID=4a0c7106
DTITLE=Lester Levenson - The Ultimate Goal Vol 02 CD 03
DYEAR=2000
DGENRE=Home Study
TTITLE0=The Answer Is Here All the Time pt 1
TTITLE1=The Answer Is Here All the Time pt 2
TTITLE2=The Answer Is Here All the Time pt 3
TTITLE3=The Answer Is Here All the Time pt 4
TTITLE4=The Answer Is Here All the Time pt 5
TTITLE5=The Answer Is Here All the Time pt 6
EXTD=
EXTT0=
EXTT1=
EXTT2=
EXTT3=
EXTT4=
EXTT5=
PLAYORDER=
